<svg xmlns="http://www.w3.org/2000/svg" viewBox="0 0 620 530" fill="none"><title>课程文件整理示意</title><desc>PPT、PDF 和课程参考资料，按目录放入一个课程资料压缩包。</desc><defs><filter id="shadow" x="-20%" y="-25%" width="145%" height="170%"><feDropShadow dy="14" stdDeviation="17" flood-color="#163889" flood-opacity=".10"/></filter></defs><g font-family="Segoe UI, PingFang SC, Microsoft YaHei, sans-serif"><path d="M40 177a19 19 0 0 1 19-19h118l25-28h328a20 20 0 0 1 20 20v286H40z" fill="#cad9fc"/><rect x="91" y="74" width="386" height="336" rx="12" fill="#f9fbff" stroke="#c8d6f7"/><rect x="123" y="42" width="386" height="343" rx="12" fill="white" stroke="#d7e1f5"/><path d="M155 72h84" stroke="#1d4ed8" stroke-width="5" stroke-linecap="round"/><text x="155" y="115" font-size="23" font-weight="650" fill="#152b4d">这一学期，一起收好。</text><path d="M155 136h274m-274 14h211" stroke="#e2e8f3" stroke-width="6" stroke-linecap="round"/><rect x="433" y="69" width="47" height="26" rx="5" fill="#ecf1fd"/><text x="444" y="86" font-size="11" font-weight="700" fill="#1d4ed8">PPTX</text><g filter="url(#shadow)"><path d="M34 206a18 18 0 0 1 18-18h121c7 0 12 3 17 7l13 15c4 5 10 8 17 8h353a18 18 0 0 1 18 18v231a19 19 0 0 1-19 19H52a18 18 0 0 1-18-18z" fill="#e8efff" stroke="#c3d3f7"/><text x="65" y="254" font-size="20" font-weight="650" fill="#163365">本学期的课件</text><text x="480" y="254" font-size="13" fill="#46628c">3 个文件</text><g fill="white" stroke="#d3dff6"><rect x="61" y="277" width="502" height="53" rx="9"/><rect x="61" y="340" width="502" height="53" rx="9"/><rect x="61" y="403" width="502" height="53" rx="9"/></g><g fill="#1d4ed8"><rect x="78" y="294" width="18" height="18" rx="4"/><rect x="78" y="357" width="18" height="18" rx="4"/><rect x="78" y="420" width="18" height="18" rx="4"/></g><g stroke="white" stroke-width="1.8" stroke-linecap="round" stroke-linejoin="round"><path d="m82 303 3 3 6-6m-9 66 3 3 6-6m-9 66 3 3 6-6"/></g><g font-size="16" fill="#203553"><text x="110" y="309">第一章 课程导论.pptx</text><text x="110" y="372">第二章 课堂讲义.pdf</text><text x="110" y="435">学习参考资料.pdf</text></g><g font-size="11" fill="#46628c"><text x="508" y="308">原文件</text><text x="508" y="371">原文件</text><text x="508" y="434">PDF</text></g></g><g filter="url(#shadow)"><rect x="348" y="465" width="231" height="52" rx="12" fill="white" stroke="#bfcef1"/><rect x="358" y="475" width="31" height="31" rx="8" fill="#1d4ed8"/><path d="M373.5 481v12m-4-4 4 4 4-4m-9 7h10" stroke="white" stroke-width="1.8" stroke-linecap="round" stroke-linejoin="round"/><text x="402" y="497" font-size="16" font-weight="600" fill="#173360">课程资料.zip</text><path d="m548 486 5 5-5 5" stroke="#1d4ed8" stroke-width="2" stroke-linecap="round" stroke-linejoin="round"/></g></g></svg>